<svg preserveAspectRatio="none" width="100%" height="100%" overflow="visible" style="display: block;" viewBox="0 0 25 25" fill="none" xmlns="http://www.w3.org/2000/svg">
<path id="Vector" d="M22.3214 17.9734V14.2781C22.3214 13.8047 22.1333 13.3508 21.7984 13.0161C21.4635 12.6814 21.0093 12.4933 20.5357 12.4933H13.3929V8.9238H15.1786C15.6522 8.9238 16.1064 8.73576 16.4413 8.40105C16.7761 8.06634 16.9643 7.61238 16.9643 7.13904V1.78476C16.9643 1.31141 16.7761 0.857451 16.4413 0.522744C16.1064 0.188036 15.6522 0 15.1786 0H9.82143C9.34783 0 8.89363 0.188036 8.55874 0.522744C8.22385 0.857451 8.03572 1.31141 8.03572 1.78476V7.13904C8.03572 7.61238 8.22385 8.06634 8.55874 8.40105C8.89363 8.73576 9.34783 8.9238 9.82143 8.9238H11.6071V12.4933H4.46429C3.99069 12.4933 3.53649 12.6814 3.2016 13.0161C2.86671 13.3508 2.67858 13.8047 2.67858 14.2781V17.9743C1.83692 18.1915 1.10341 18.708 0.615542 19.4271C0.127675 20.1462 -0.0810566 21.0184 0.028474 21.8803C0.138005 22.7421 0.558277 23.5345 1.21051 24.1088C1.86275 24.6831 2.70217 25 3.57143 25C4.4407 25 5.28012 24.6831 5.93236 24.1088C6.58459 23.5345 7.00486 22.7421 7.11439 21.8803C7.22393 21.0184 7.0152 20.1462 6.52733 19.4271C6.03946 18.708 5.30595 18.1915 4.46429 17.9743V14.2781H11.6071V17.9743C10.7655 18.1915 10.032 18.708 9.54411 19.4271C9.05624 20.1462 8.84751 21.0184 8.95704 21.8803C9.06657 22.7421 9.48684 23.5345 10.1391 24.1088C10.7913 24.6831 11.6307 25 12.5 25C13.3693 25 14.2087 24.6831 14.8609 24.1088C15.5132 23.5345 15.9334 22.7421 16.043 21.8803C16.1525 21.0184 15.9438 20.1462 15.4559 19.4271C14.968 18.708 14.2345 18.1915 13.3929 17.9743V14.2781H20.5357V17.9734C19.694 18.1906 18.9605 18.7072 18.4727 19.4262C17.9848 20.1453 17.7761 21.0175 17.8856 21.8794C17.9951 22.7412 18.4154 23.5336 19.0676 24.1079C19.7199 24.6822 20.5593 24.9991 21.4286 24.9991C22.2978 24.9991 23.1372 24.6822 23.7895 24.1079C24.4417 23.5336 24.862 22.7412 24.9715 21.8794C25.0811 21.0175 24.8723 20.1453 24.3845 19.4262C23.8966 18.7072 23.1631 18.1906 22.3214 17.9734ZM9.82143 1.78476H15.1786L15.1795 7.13904H9.82143V1.78476ZM5.35715 21.4171C5.35715 21.7701 5.25242 22.1152 5.0562 22.4087C4.85998 22.7022 4.58109 22.9309 4.2548 23.066C3.9285 23.2011 3.56945 23.2364 3.22306 23.1676C2.87667 23.0987 2.55848 22.9287 2.30874 22.6791C2.05901 22.4295 1.88894 22.1115 1.82003 21.7653C1.75113 21.4191 1.78649 21.0602 1.92165 20.7341C2.05681 20.408 2.28569 20.1292 2.57935 19.9331C2.873 19.737 3.21825 19.6323 3.57143 19.6323C4.04504 19.6323 4.49924 19.8204 4.83412 20.1551C5.16901 20.4898 5.35715 20.9438 5.35715 21.4171ZM14.2857 21.4171C14.2857 21.7701 14.181 22.1152 13.9848 22.4087C13.7885 22.7022 13.5097 22.9309 13.1834 23.066C12.8571 23.2011 12.498 23.2364 12.1516 23.1676C11.8052 23.0987 11.487 22.9287 11.2373 22.6791C10.9876 22.4295 10.8175 22.1115 10.7486 21.7653C10.6797 21.4191 10.7151 21.0602 10.8502 20.7341C10.9854 20.408 11.2143 20.1292 11.5079 19.9331C11.8016 19.737 12.1468 19.6323 12.5 19.6323C12.9734 19.6331 13.4272 19.8213 13.7619 20.1559C14.0966 20.4904 14.285 20.944 14.2857 21.4171ZM21.4286 23.2019C21.0754 23.2019 20.7301 23.0972 20.4365 22.9011C20.1428 22.705 19.9139 22.4262 19.7788 22.1001C19.6436 21.774 19.6083 21.4151 19.6772 21.0689C19.7461 20.7227 19.9161 20.4047 20.1659 20.1551C20.4156 19.9055 20.7338 19.7355 21.0802 19.6666C21.4266 19.5978 21.7856 19.6331 22.1119 19.7682C22.4382 19.9033 22.7171 20.132 22.9133 20.4255C23.1095 20.7191 23.2143 21.0641 23.2143 21.4171C23.2143 21.8905 23.0261 22.3444 22.6913 22.6791C22.3564 23.0138 21.9022 23.2019 21.4286 23.2019Z" fill="var(--fill-0, black)"/>
</svg>
