<svg preserveAspectRatio="none" width="100%" height="100%" overflow="visible" style="display: block;" viewBox="0 0 23 25" fill="none" xmlns="http://www.w3.org/2000/svg">
<path id="Vector" d="M0 23.375V9.25089C0 8.8349 0.0941904 8.44112 0.282571 8.06955C0.470952 7.69797 0.730524 7.39194 1.06129 7.15145L9.90807 0.524863C10.3714 0.174955 10.9004 0 11.4951 0C12.0898 0 12.6221 0.174955 13.0919 0.524863L21.9387 7.14982C22.2706 7.39032 22.5301 7.69689 22.7174 8.06955C22.9058 8.44112 23 8.8349 23 9.25089V23.375C23 23.8105 22.8363 24.1902 22.5088 24.5141C22.1813 24.838 21.7974 25 21.3571 25H14.9763C14.5995 25 14.2841 24.8743 14.03 24.623C13.7759 24.3706 13.6489 24.0586 13.6489 23.687V15.4387H9.35114V23.687C9.35114 24.0597 9.2241 24.3717 8.97 24.623C8.71591 24.8743 8.40102 25 8.02536 25H1.64286C1.20257 25 0.81869 24.838 0.491214 24.5141C0.163738 24.1902 0 23.8105 0 23.375Z" fill="var(--fill-0, #0E3057)"/>
</svg>
