<svg preserveAspectRatio="none" width="100%" height="100%" overflow="visible" style="display: block;" viewBox="0 0 38 37" fill="none" xmlns="http://www.w3.org/2000/svg">
<g id="Frame 28">
<rect width="38" height="37" rx="10" fill="var(--fill-0, #4A7FA5)"/>
<path id="Vector" d="M16.175 17.325C15.3917 16.5417 15 15.6 15 14.5C15 13.4 15.3917 12.4583 16.175 11.675C16.9583 10.8917 17.9 10.5 19 10.5C20.1 10.5 21.0417 10.8917 21.825 11.675C22.6083 12.4583 23 13.4 23 14.5C23 15.6 22.6083 16.5417 21.825 17.325C21.0417 18.1083 20.1 18.5 19 18.5C17.9 18.5 16.9583 18.1083 16.175 17.325ZM11 24.5V23.7C11 23.1333 11.146 22.6127 11.438 22.138C11.73 21.6633 12.1173 21.3007 12.6 21.05C13.6333 20.5333 14.6833 20.146 15.75 19.888C16.8167 19.63 17.9 19.5007 19 19.5C20.1 19.4993 21.1833 19.6287 22.25 19.888C23.3167 20.1473 24.3667 20.5347 25.4 21.05C25.8833 21.3 26.271 21.6627 26.563 22.138C26.855 22.6133 27.0007 23.134 27 23.7V24.5C27 25.05 26.8043 25.521 26.413 25.913C26.0217 26.305 25.5507 26.5007 25 26.5H13C12.45 26.5 11.9793 26.3043 11.588 25.913C11.1967 25.5217 11.0007 25.0507 11 24.5Z" fill="var(--fill-0, white)"/>
</g>
</svg>
