<svg preserveAspectRatio="none" width="100%" height="100%" overflow="visible" style="display: block;" viewBox="0 0 47 48" fill="none" xmlns="http://www.w3.org/2000/svg">
<g id="ic:round-search">
<path id="Vector" d="M29.7982 28.0574H28.5471L28.1037 27.6142C29.0934 26.4226 29.8168 25.0189 30.2219 23.5036C30.6271 21.9884 30.7042 20.399 30.4475 18.8493C29.7032 14.2863 26.0291 10.6425 21.5948 10.0844C20.0358 9.88002 18.4524 10.0479 16.9657 10.5753C15.479 11.1027 14.1285 11.9756 13.0173 13.1273C11.9062 14.2789 11.064 15.6786 10.5551 17.2195C10.0463 18.7604 9.88424 20.4014 10.0815 22.0172C10.6199 26.613 14.1357 30.421 18.5383 31.1924C20.0335 31.4584 21.567 31.3786 23.029 30.9586C24.491 30.5387 25.8453 29.789 26.9951 28.7632L27.4227 29.2228V30.5195L34.1533 37.4953C34.8027 38.1682 35.8637 38.1682 36.513 37.4953C37.1623 36.8223 37.1623 35.7226 36.513 35.0496L29.7982 28.0574ZM20.2962 28.0574C16.3528 28.0574 13.1696 24.7583 13.1696 20.6713C13.1696 16.5842 16.3528 13.2851 20.2962 13.2851C24.2395 13.2851 27.4227 16.5842 27.4227 20.6713C27.4227 24.7583 24.2395 28.0574 20.2962 28.0574Z" fill="var(--fill-0, #4A7FA5)"/>
</g>
</svg>
